<?xml version="1.0" encoding="UTF-8" standalone="no"?>
<!-- Created with Inkscape (http://www.inkscape.org/) -->

<svg
   version="1.1"
   id="svg9"
   xml:space="preserve"
   width="682.66669"
   height="682.66669"
   viewBox="0 0 682.66669 682.66669"
   xmlns="http://www.w3.org/2000/svg"
   xmlns:svg="http://www.w3.org/2000/svg"><defs
     id="defs13"><clipPath
       clipPathUnits="userSpaceOnUse"
       id="clipPath23"><path
         d="M 0,512 H 512 V 0 H 0 Z"
         id="path21" /></clipPath></defs><g
     id="g15"
     transform="matrix(1.3333333,0,0,-1.3333333,0,682.66667)"><g
       id="g17"><g
         id="g19"
         clip-path="url(#clipPath23)"><g
           id="g25"
           transform="translate(304.2002,256)"><path
             d="m 0,0 c 0,-26.62 -21.58,-48.2 -48.2,-48.2 -26.62,0 -48.2,21.58 -48.2,48.2 0,26.62 21.58,48.2 48.2,48.2 C -21.58,48.2 0,26.62 0,0 Z"
             style="fill:none;stroke:#000000;stroke-width:30;stroke-linecap:butt;stroke-linejoin:miter;stroke-miterlimit:10;stroke-dasharray:none;stroke-opacity:1"
             id="path27" /></g><g
           id="g29"
           transform="translate(131.0889,131.0894)"><path
             d="m 0,0 c -32.002,32.002 -51.822,76.185 -51.822,124.911 0,48.725 19.82,92.909 51.822,124.911"
             style="fill:none;stroke:#000000;stroke-width:30;stroke-linecap:butt;stroke-linejoin:miter;stroke-miterlimit:10;stroke-dasharray:none;stroke-opacity:1"
             id="path31" /></g><g
           id="g33"
           transform="translate(85.667,426.333)"><path
             d="m 0,0 c -43.639,-43.639 -70.667,-103.889 -70.667,-170.333 0,-66.444 27.028,-126.694 70.667,-170.333"
             style="fill:none;stroke:#000000;stroke-width:30;stroke-linecap:butt;stroke-linejoin:miter;stroke-miterlimit:10;stroke-dasharray:none;stroke-opacity:1"
             id="path35" /></g><g
           id="g37"
           transform="translate(426.333,85.667)"><path
             d="M 0,0 C 43.639,43.639 70.667,103.889 70.667,170.333 70.667,236.777 43.639,297.027 0,340.666"
             style="fill:none;stroke:#000000;stroke-width:30;stroke-linecap:butt;stroke-linejoin:miter;stroke-miterlimit:10;stroke-dasharray:none;stroke-opacity:1"
             id="path39" /></g><g
           id="g41"
           transform="translate(380.9111,380.9111)"><path
             d="M 0,0 C 32.002,-32.002 51.822,-76.186 51.822,-124.911 51.822,-173.637 32.002,-217.82 0,-249.822"
             style="fill:none;stroke:#000000;stroke-width:30;stroke-linecap:butt;stroke-linejoin:miter;stroke-miterlimit:10;stroke-dasharray:none;stroke-opacity:1"
             id="path43" /></g><g
           id="g45"
           transform="translate(335.4888,176.5112)"><path
             d="m 0,0 c 20.365,20.365 32.978,48.482 32.978,79.489 0,31.007 -12.613,59.124 -32.978,79.489"
             style="fill:none;stroke:#000000;stroke-width:30;stroke-linecap:butt;stroke-linejoin:miter;stroke-miterlimit:10;stroke-dasharray:none;stroke-opacity:1"
             id="path47" /></g><g
           id="g49"
           transform="translate(176.5112,335.4888)"><path
             d="m 0,0 c -20.365,-20.365 -32.978,-48.481 -32.978,-79.489 0,-31.007 12.613,-59.123 32.978,-79.489"
             style="fill:none;stroke:#000000;stroke-width:30;stroke-linecap:butt;stroke-linejoin:miter;stroke-miterlimit:10;stroke-dasharray:none;stroke-opacity:1"
             id="path51" /></g></g></g></g></svg>
